# xmcd
#
# Track frame offsets: 
#        150
#        30679
#        62401
#        92779
#        127724
#        160723
#        187153
#        211525
#        235962
#        266450
#        299970
#
# Disc length: 4410 seconds
#
# Revision: 0
# Processed by: cddbd v1.5.2PL0 Copyright (c) Steve Scherf et al.
# Submitted via: ExactAudioCopy v1.0b3
#
DISCID=9711380b
DTITLE=Various Artist - Trance-Up! Vol. 1
DYEAR=1900
DGENRE=
TTITLE0=Virus - The Final Destiny (Non Verbal Rmx)
TTITLE1=Daman Van Thorn - Lose My Mind (Hard Floor Mix)
TTITLE2=SSL 9000 - Arrival (Smooth Mix)
TTITLE3=Steven Gore Meets DJ Björn - Secret Desire (Vocal Club Mix)
TTITLE4=Sequential One - Angels (ATB Club Mix)
TTITLE5=666 - I'm Your Nitemare (Xtd Mix)
TTITLE6=D-Ultimate - Hammer (Strong Mix)
TTITLE7=Las Baleares - Beat Pumpin' (Club Mix)
TTITLE8=Miss C. - Kiss (First Mix)
TTITLE9=Miss Thunderpussy - The Ride (Planet Trax Rmx)
TTITLE10=Van Holt Vs. Deville - I Take You There (Drone Mix)
EXTD=
EXTT0=
EXTT1=
EXTT2=
EXTT3=
EXTT4=
EXTT5=
EXTT6=
EXTT7=
EXTT8=
EXTT9=
EXTT10=
PLAYORDER=
